<svg xmlns="http://www.w3.org/2000/svg" width="73.228" height="85" viewBox="0 0 73.228 85"><path d="M262.711,163.32a1.66,1.66,0,1,0-1.66-1.66A1.661,1.661,0,0,0,262.711,163.32Zm0,0" transform="translate(-217.795 -133.438)" fill="#32325f"/><path d="M162.711,163.32a1.66,1.66,0,1,0-1.66-1.66A1.661,1.661,0,0,0,162.711,163.32Zm0,0" transform="translate(-134.397 -133.438)" fill="#32325f"/><path d="M189.531,232.849a10.442,10.442,0,0,0,8.79.04,1.66,1.66,0,1,0-1.387-3.017,7.122,7.122,0,0,1-5.988-.027,1.66,1.66,0,1,0-1.416,3Zm0,0" transform="translate(-157.354 -191.556)" fill="#32325f"/><path d="M73.728,67.364c0-9.129-10.4-16.288-19.308-16.628l-4.547-4.085a21.658,21.658,0,0,0,8.9-17.433V18.262A18.312,18.312,0,0,0,40.451,0H33.811a18.2,18.2,0,0,0-18.2,18.262V29.219a21.7,21.7,0,0,0,8.782,17.4l-4.581,4.116C10.916,51.075.5,58.216.5,67.364V83.34A1.66,1.66,0,0,0,2.16,85H72.068a1.66,1.66,0,0,0,1.66-1.66ZM33.437,74.043h7.346l1.741,7.637H31.645Zm7.488-3.32H33.332l-1.274-3.968,5.057-2.528L42.28,66.81ZM37.114,59.238l-5.769-9.229a21.575,21.575,0,0,0,11.529.014ZM39.49,61.7l7.971-12.754,4.3,3.862L46.29,65.1ZM33.811,3.32h6.641a14.987,14.987,0,0,1,15,14.941v1.372l-3.117-4.489a1.66,1.66,0,0,0-2.551-.214c-3.375,3.451-7.282,4.991-12.668,4.991s-9.294-1.54-12.671-4.991a1.66,1.66,0,0,0-2.558.225l-2.958,4.335v-1.23A14.929,14.929,0,0,1,33.811,3.32Zm-14.883,25.9V25.382l4.611-6.757c3.694,3.142,8.059,4.617,13.576,4.617s9.892-1.479,13.586-4.627l4.75,6.84v3.763a18.262,18.262,0,1,1-36.523,0Zm7.839,19.73L34.739,61.7l-6.8,3.4L22.468,52.81ZM3.82,67.364c0-6.839,8.314-12.744,15.579-13.281l6.211,13.956a1.66,1.66,0,0,0,2.259.81l1.183-.592L30.4,72.452,28.235,81.68H3.82ZM70.407,81.68H45.928l-2.1-9.2,1.444-4.17,1.083.542a1.66,1.66,0,0,0,2.259-.81l6.211-13.956c7.265.538,15.579,6.442,15.579,13.281Zm0,0" transform="translate(-0.5)" fill="#32325f"/><path d="M309.352,446h-6.641a1.66,1.66,0,0,0,0,3.32h6.641a1.66,1.66,0,0,0,0-3.32Zm0,0" transform="translate(-251.155 -371.957)" fill="#32325f"/><path d="M382.16,446a1.66,1.66,0,1,1-1.66,1.66A1.661,1.661,0,0,1,382.16,446Zm0,0" transform="translate(-317.414 -371.957)" fill="#32325f"/></svg>