<svg xmlns="http://www.w3.org/2000/svg" width="84.973" height="85" viewBox="0 0 84.973 85"><path d="M221.558,333.028a1.661,1.661,0,1,0-2.348,0A1.662,1.662,0,0,0,221.558,333.028Zm0,0" transform="translate(-182.496 -275.376)"/><path d="M188.449,18.257A18.257,18.257,0,1,0,206.706,0,18.278,18.278,0,0,0,188.449,18.257Zm33.194,0A14.938,14.938,0,1,1,206.706,3.32,14.954,14.954,0,0,1,221.643,18.257Zm0,0" transform="translate(-157.247)" fill="#32325f"/><path d="M19.618,261.58a1.659,1.659,0,0,0,2.342.014l8.047-7.927a5.015,5.015,0,0,0,1.182-5.15l1.731-1.669a4.95,4.95,0,0,1,3.456-1.4H58.439a14.86,14.86,0,0,0,10.419-4.233c.115-.112-.876,1.056,15.052-17.982a6.639,6.639,0,0,0-10.1-8.617l-9.794,10.066a6.67,6.67,0,0,0-5.16-2.471H40.347a21.412,21.412,0,0,0-8.311-1.66c-7.992,0-14.971,3.691-18.716,10.612a4.958,4.958,0,0,0-4.439,1.375l-7.9,7.919a1.66,1.66,0,0,0,0,2.341Zm12.417-37.706a18.118,18.118,0,0,1,7.307,1.521,1.656,1.656,0,0,0,.665.139H58.854a3.319,3.319,0,1,1,0,6.639H45.313a1.66,1.66,0,0,0,0,3.319H58.854a6.629,6.629,0,0,0,6.58-7.506c9.474-9.738,10.81-11.107,10.867-11.175A3.32,3.32,0,1,1,81.37,221.1L66.484,238.9a11.557,11.557,0,0,1-8.045,3.235H36.375a8.252,8.252,0,0,0-5.761,2.327L29.2,245.82l-13-13C19.24,227.117,24.942,223.874,32.035,223.874ZM11.23,234.888a1.656,1.656,0,0,1,2.055-.233c.287.175-.538-.576,14.375,14.316a1.663,1.663,0,0,1,.009,2.339l-6.86,6.758L4.5,241.636Zm0,0" transform="translate(-0.501 -177.071)" fill="#32325f"/><path d="M269.212,41.648v1.945a4.979,4.979,0,0,0,1.66,9.673,1.66,1.66,0,0,1,0,3.319,3,3,0,0,1-2.155-1.255,1.66,1.66,0,0,0-2.541,2.136,6.884,6.884,0,0,0,3.036,2.161v1.937a1.66,1.66,0,1,0,3.319,0V59.62a4.979,4.979,0,0,0-1.659-9.673,1.66,1.66,0,0,1,0-3.32,2.665,2.665,0,0,1,1.8.868,1.66,1.66,0,1,0,2.309-2.385,6.412,6.412,0,0,0-2.444-1.528V41.648a1.66,1.66,0,1,0-3.319,0Zm0,0" transform="translate(-221.745 -33.35)"/></svg>