<svg xmlns="http://www.w3.org/2000/svg" width="85" height="85" viewBox="0 0 85 85"><path d="M201.66,312a1.66,1.66,0,1,0,1.66,1.66A1.661,1.661,0,0,0,201.66,312Zm0,0" transform="translate(-166.797 -260.203)" fill="#32325f"/><path d="M201.66,372a1.66,1.66,0,1,0,1.66,1.66A1.661,1.661,0,0,0,201.66,372Zm0,0" transform="translate(-166.797 -310.242)" fill="#32325f"/><path d="M263.574,312H241.66a1.66,1.66,0,0,0,0,3.32h21.914a1.66,1.66,0,0,0,0-3.32Zm0,0" transform="translate(-200.156 -260.203)" fill="#32325f"/><path d="M263.574,372H241.66a1.66,1.66,0,0,0,0,3.32h21.914a1.66,1.66,0,0,0,0-3.32Zm0,0" transform="translate(-200.156 -310.242)" fill="#32325f"/><path d="M4.98,80.573V83.34a1.66,1.66,0,0,0,3.32,0V80.573l.664-.885a21.716,21.716,0,0,0,4.316-12.949V19.922h1.66a1.662,1.662,0,0,1,1.66,1.66V36.855a1.66,1.66,0,0,0,3.32,0V21.582a4.986,4.986,0,0,0-4.98-4.98h-1.66v-3.32a6.587,6.587,0,0,0-1.66-4.389V4.98a4.98,4.98,0,0,0-9.961,0V8.894A6.638,6.638,0,0,0,0,13.281V66.738A21.715,21.715,0,0,0,4.316,79.688Zm4.98-15.495H3.32V19.922H9.961ZM3.32,16.6v-3.32a3.32,3.32,0,0,1,6.641,0V16.6ZM6.641,3.32A1.662,1.662,0,0,1,8.3,4.98V6.853a6.595,6.595,0,0,0-3.32,0V4.98A1.662,1.662,0,0,1,6.641,3.32ZM9.884,68.4a18.4,18.4,0,0,1-3.243,8.839A18.4,18.4,0,0,1,3.4,68.4Zm0,0" fill="#32325f"/><path d="M168.4,86.941v-8.3A6.648,6.648,0,0,0,161.758,72H114.941a8.31,8.31,0,0,0-8.3,8.3v51.465h-4.98a1.66,1.66,0,0,0-1.66,1.66,11.634,11.634,0,0,0,11.621,11.621h38.516a8.47,8.47,0,0,0,8.3-8.656V88.6h8.3A1.66,1.66,0,0,0,168.4,86.941Zm-56.777,54.785a8.316,8.316,0,0,1-8.134-6.641h38.349v1.66a8.261,8.261,0,0,0,1.664,4.98Zm43.5-63.086v57.75a5.135,5.135,0,0,1-4.98,5.336,4.986,4.986,0,0,1-4.98-4.98v-3.32a1.66,1.66,0,0,0-1.66-1.66H109.961V80.3a5,5,0,0,1,4.98-5H156A6.7,6.7,0,0,0,155.117,78.641Zm9.961,6.641h-6.641V78.641a3.32,3.32,0,0,1,6.641,0Zm0,0" transform="translate(-83.398 -60.047)" fill="#32325f"/><path d="M225.641,152.312c.946.8,1.925,1.625,2.964,2.525a1.661,1.661,0,0,0,2.174,0c1.038-.9,2.017-1.726,2.964-2.525,5.285-4.46,9.1-7.682,9.1-12.414a7.583,7.583,0,0,0-7.407-7.9,6.974,6.974,0,0,0-5.746,3.021A6.976,6.976,0,0,0,223.945,132a7.582,7.582,0,0,0-7.406,7.9C216.539,144.63,220.357,147.852,225.641,152.312Zm-1.7-16.991c3.031,0,4.106,3.617,4.15,3.771a1.659,1.659,0,0,0,1.591,1.206h.008a1.666,1.666,0,0,0,1.6-1.206c.044-.154,1.119-3.771,4.148-3.771,2.33,0,4.087,1.968,4.087,4.578,0,3.189-2.982,5.705-7.924,9.876-.619.523-1.253,1.057-1.909,1.618-.657-.561-1.291-1.1-1.91-1.619-4.941-4.17-7.923-6.687-7.923-9.875C219.859,137.289,221.616,135.32,223.945,135.32Zm0,0" transform="translate(-180.59 -110.086)" fill="#32325f"/></svg>