<svg xmlns="http://www.w3.org/2000/svg" width="85" height="85" viewBox="0 0 85 85"><path d="M247.66,352a1.66,1.66,0,1,0,1.66,1.66A1.661,1.661,0,0,0,247.66,352Zm0,0" transform="translate(-205.16 -293.563)"/><path d="M85,33.546a1.661,1.661,0,0,0-.94-1.506L56.5,18.758a1.661,1.661,0,0,0-1.463.01l-5.9,2.949V1.66A1.66,1.66,0,0,0,47.48,0H37.519a1.66,1.66,0,0,0-1.66,1.66V21.718l-5.9-2.949a1.661,1.661,0,0,0-1.463-.01L.94,32.04a1.66,1.66,0,0,0,.021,3L12,40.176.96,45.311a1.66,1.66,0,0,0-.021,3L14.277,54.74V70.059a1.66,1.66,0,0,0,.918,1.484L41.757,84.824c.016.008.032.013.047.02s.051.023.077.033c.042.017.084.032.126.045.025.008.05.016.076.023.046.012.092.021.139.029l.069.012a1.666,1.666,0,0,0,.188.013H42.5a1.665,1.665,0,0,0,.212-.015c.018,0,.035-.006.053-.009.052-.008.1-.019.155-.032.023-.006.047-.014.07-.021.045-.014.088-.029.132-.047.025-.01.051-.021.075-.032s.03-.012.044-.019L69.8,71.544a1.661,1.661,0,0,0,.918-1.485V54.74L84.06,48.312a1.66,1.66,0,0,0-.021-3L73,40.176,84.039,35.04A1.66,1.66,0,0,0,85,33.546ZM39.18,3.32H45.82V26.895a1.66,1.66,0,0,0,1.66,1.66h1.661L42.5,37.409l-5.917-7.888-.724-.966h1.661a1.66,1.66,0,0,0,1.66-1.66ZM42.5,51.6,19.649,40.176l15.109-7.554,6.414,8.55a1.66,1.66,0,0,0,2.656,0l6.413-8.55L65.35,40.176ZM29.2,22.1l6.263,3.131H32.539a1.66,1.66,0,0,0-1.328,2.656l1.523,2.031L15.911,38.333,5.539,33.509ZM15.911,42.019,38.788,53.457,29.2,58.248,5.539,46.843ZM67.4,69.032,44.16,80.653V66.738a1.66,1.66,0,0,0-3.32,0V80.653L17.6,69.032V56.34l10.9,5.253a1.663,1.663,0,0,0,1.464-.01L42.5,55.313l12.539,6.27a1.661,1.661,0,0,0,1.463.01L67.4,56.34ZM55.795,58.248l-9.583-4.791L69.088,42.019,79.46,46.843ZM69.088,38.333,52.266,29.921l1.523-2.031a1.66,1.66,0,0,0-1.328-2.656H49.532L55.794,22.1,79.46,33.509Zm0,0" transform="translate(0)" fill="#32325f"/></svg>